# xmcd
#
# Track frame offsets: 
#        150
#        12412
#        24990
#        39190
#        52835
#        66172
#        79792
#        92827
#        107412
#        119837
#        132702
#        145727
#        160670
#        175392
#        191125
#        206635
#        219975
#        232725
#        247295
#        260100
#        275397
#        288852
#        303517
#        317702
#
# Disc length: 4416 seconds
#
# Revision: 0
# Processed by: cddbd v1.5.2PL0 Copyright (c) Steve Scherf et al.
# Submitted via: ExactAudioCopyFreeDBPlugin 1.0
#
DISCID=5d113e18
DTITLE=Various Artist - St. Louis Country Blues (1929-1937)
DYEAR=1993
DGENRE=Blues
TTITLE0=Henry Spaulding - Cairo Blues
TTITLE1=Henry Spaulding - Biddle Street Blues
TTITLE2=Henry Townsend - Henry's Worry Blues
TTITLE3=Henry Townsend - Mistreated Blues
TTITLE4=Henry Townsend - Long Ago Blues
TTITLE5=Henry Townsend - Poor Man Blues
TTITLE6=Henry Townsend - No Home Blues
TTITLE7=Henry Townsend - Take a Chance
TTITLE8=Henry Townsend - She's Got What I Want
TTITLE9=Henry Townsend - My Sweet Candy
TTITLE10=Henry Townsend - Sick with the Blues
TTITLE11=Henry Townsend - Don't Love That Woman
TTITLE12=Henry Townsend - She's Got a Mean Disposition
TTITLE13=Henry Townsend - Lose Your Man
TTITLE14=Henry Townsend - All I've Got's Gone
TTITLE15=Henry Townsend - A Ramblin' Mind
TTITLE16=Henry Townsend - Now I Stay Away
TTITLE17=Jaydee Short - Telephone Arguin' Blues
TTITLE18=Jaydee Short - Lonesome Swamp Rattlesnake
TTITLE19=Jaydee Short - Snake Doctor Blues
TTITLE20=Jaydee Short - Barefoot Blues
TTITLE21=Jaydee Short - Grand Daddy Blues
TTITLE22=Jaydee Short - It's Hard Time
TTITLE23=Jaydee Short - Back Door Blues
EXTD=
EXTT0=
EXTT1=
EXTT2=
EXTT3=
EXTT4=
EXTT5=
EXTT6=
EXTT7=
EXTT8=
EXTT9=
EXTT10=
EXTT11=
EXTT12=
EXTT13=
EXTT14=
EXTT15=
EXTT16=
EXTT17=
EXTT18=
EXTT19=
EXTT20=
EXTT21=
EXTT22=
EXTT23=
PLAYORDER=
